<?xml version="1.0" standalone="no"?>
<!DOCTYPE svg PUBLIC "-//W3C//DTD SVG 20010904//EN"
 "http://www.w3.org/TR/2001/REC-SVG-20010904/DTD/svg10.dtd">
<svg version="1.0" xmlns="http://www.w3.org/2000/svg"
 width="500.000000pt" height="500.000000pt" viewBox="0 0 500.000000 500.000000"
 preserveAspectRatio="xMidYMid meet">
<metadata>
Created by potrace 1.10, written by Peter Selinger 2001-2011
</metadata>
<g transform="translate(0.000000,500.000000) scale(0.100000,-0.100000)"
fill="#1F51FF" stroke="none">
<path d="M2110 4983 c-314 -32 -540 -93 -800 -214 -155 -72 -270 -142 -398
-241 -134 -104 -362 -328 -362 -356 0 -11 22 -58 49 -104 98 -166 314 -534
341 -578 15 -25 62 -106 105 -180 43 -74 105 -180 138 -235 125 -207 187 -318
187 -334 0 -16 -35 -76 -344 -599 -34 -57 -69 -119 -79 -138 -9 -19 -21 -34
-26 -34 -5 0 -109 168 -232 373 -510 855 -580 972 -587 972 -10 0 -29 -103
-53 -280 -18 -134 -20 -191 -16 -350 5 -180 25 -362 48 -449 30 -112 91 -292
129 -381 150 -355 396 -667 714 -906 43 -33 80 -59 81 -57 14 15 1085 1850
1085 1858 0 6 -46 89 -101 183 -56 95 -133 226 -172 292 -38 66 -91 156 -118
200 -207 348 -369 630 -369 642 0 15 124 92 232 143 520 248 1114 205 1598
-115 149 -99 401 -339 385 -366 -4 -5 -259 -9 -641 -9 -390 0 -634 -4 -634 -9
0 -6 17 -38 39 -73 21 -35 71 -119 111 -188 41 -69 95 -161 121 -205 25 -44
54 -95 63 -112 l17 -33 924 0 c508 0 926 3 928 8 9 15 -41 231 -82 352 -160
475 -477 886 -896 1163 -181 119 -495 256 -690 300 -249 56 -513 79 -695 60z"/>
<path d="M2616 2368 c-7 -13 -60 -102 -116 -198 -56 -96 -131 -223 -166 -281
-35 -59 -64 -110 -64 -113 0 -3 285 -6 634 -6 388 0 637 -4 641 -9 7 -13 -93
-129 -181 -210 -155 -143 -383 -276 -596 -350 -105 -36 -293 -70 -438 -78 -95
-5 -248 8 -392 33 -34 6 -37 4 -53 -27 -10 -19 -80 -141 -157 -273 -77 -131
-136 -242 -131 -247 15 -15 198 -59 338 -81 271 -41 621 -23 885 46 654 172
1200 626 1479 1230 79 172 171 472 171 561 l0 25 -920 0 -920 0 -14 -22z"/>
</g>
</svg>
