<svg width="63" height="32" viewBox="0 0 63 32" fill="none" xmlns="http://www.w3.org/2000/svg">
<path d="M3.94899 11.5278L4.20903 13.9495C4.72911 13.0024 5.43338 12.2597 6.32184 11.7215C7.2103 11.1833 8.23962 10.9142 9.40979 10.9142C10.5366 10.9142 11.4793 11.1618 12.2377 11.6569C12.9961 12.152 13.462 12.8409 13.6354 13.7235C14.2205 12.8624 14.9356 12.1843 15.7807 11.6892C16.6475 11.1726 17.5576 10.9142 18.5111 10.9142C19.8763 10.9142 20.949 11.3017 21.7291 12.0767C22.5309 12.8301 22.9426 13.8096 22.9643 15.0151V25.1867H19.3562V16.4036C19.3129 15.7578 19.1612 15.2196 18.9012 14.7891C18.6411 14.337 18.1644 14.0895 17.471 14.0464C16.6908 14.0464 16.0191 14.294 15.4557 14.7891C14.8923 15.2627 14.448 15.887 14.123 16.662C13.8196 17.4154 13.6679 18.2119 13.6679 19.0515V25.1867H9.99487V16.4036C9.9732 15.7578 9.82152 15.2196 9.53981 14.7891C9.2581 14.337 8.75969 14.0895 8.04459 14.0464C7.28615 14.0464 6.62522 14.294 6.0618 14.7891C5.49839 15.2627 5.06499 15.887 4.76161 16.662C4.45823 17.4154 4.30655 18.2119 4.30655 19.0515V25.1867H0.666016V11.5278H3.94899Z" fill="white"/>
<path d="M33.5882 25.5419C32.288 25.5419 31.1287 25.2405 30.1102 24.6377C29.0917 24.035 28.29 23.1847 27.7049 22.0868C27.1198 20.9674 26.8272 19.6542 26.8272 18.1473C26.8272 16.6189 27.1415 15.3165 27.7699 14.2402C28.3983 13.1638 29.2543 12.3458 30.3378 11.7861C31.4212 11.2048 32.6564 10.9142 34.0433 10.9142C35.0401 10.9142 35.9827 11.108 36.8712 11.4955C37.7813 11.8614 38.4964 12.3673 39.0165 13.0131V0H42.6245V25.1867H38.984V23.3461C38.3123 23.9919 37.5213 24.5193 36.6112 24.9284C35.7227 25.3374 34.7151 25.5419 33.5882 25.5419ZM34.7584 22.4743C35.8202 22.4743 36.7087 22.2159 37.4238 21.6993C38.1606 21.1826 38.6806 20.4615 38.984 19.5358V16.6297C38.724 15.7901 38.2039 15.1012 37.4238 14.5631C36.6653 14.0249 35.7769 13.7558 34.7584 13.7558C33.9783 13.7558 33.2632 13.9495 32.6131 14.337C31.9847 14.703 31.4754 15.2089 31.0854 15.8547C30.6953 16.5005 30.5003 17.2432 30.5003 18.0827C30.5003 18.9008 30.6953 19.6435 31.0854 20.3108C31.4754 20.9781 31.9847 21.5056 32.6131 21.893C33.2632 22.2805 33.9783 22.4743 34.7584 22.4743Z" fill="white"/>
<path d="M54.504 32C53.3772 32 52.4129 31.8708 51.6111 31.6125C50.8093 31.3542 50.0942 31.0205 49.4658 30.6115C48.859 30.2025 48.2848 29.7612 47.743 29.2876L49.8883 26.8012C50.5168 27.3824 51.1777 27.8668 51.8711 28.2543C52.5862 28.6418 53.4422 28.8355 54.439 28.8355C55.7825 28.8355 56.8552 28.5126 57.657 27.8668C58.4588 27.221 58.8705 26.3276 58.8921 25.1867V22.894C58.4588 23.6475 57.7762 24.2825 56.8443 24.7992C55.9125 25.2943 54.7857 25.5419 53.4639 25.5419C52.207 25.5419 51.0477 25.2297 49.9859 24.6054C48.924 23.9596 48.0789 23.0878 47.4505 21.9899C46.8221 20.892 46.5078 19.6542 46.5078 18.2765C46.5078 16.8557 46.8437 15.5964 47.5155 14.4985C48.1873 13.3791 49.0649 12.5072 50.1484 11.8829C51.2319 11.2371 52.3912 10.9142 53.6264 10.9142C54.8399 10.9142 55.9125 11.1295 56.8443 11.56C57.7978 11.9691 58.4913 12.4857 58.9247 13.11L59.1847 11.5278H62.5327V25.2513C62.5327 26.5214 62.186 27.6623 61.4925 28.6741C60.8208 29.7074 59.8781 30.5146 58.6646 31.0959C57.4511 31.6986 56.0642 32 54.504 32ZM50.1809 18.1796C50.1809 18.9976 50.3651 19.7403 50.7335 20.4077C51.1235 21.075 51.6436 21.6024 52.2937 21.9899C52.9655 22.3774 53.7131 22.5711 54.5365 22.5711C55.62 22.5711 56.5301 22.3128 57.2669 21.7962C58.0254 21.258 58.5671 20.5584 58.8921 19.6973V16.7265C58.6104 15.8655 58.0687 15.1766 57.2669 14.6599C56.4868 14.1433 55.5767 13.885 54.5365 13.885C53.3013 13.885 52.2612 14.2832 51.4161 15.0797C50.5926 15.8762 50.1809 16.9095 50.1809 18.1796Z" fill="white"/>
</svg>
